# xmcd
#
# Track frame offsets:
#	150
#	16301
#	30104
#	45054
#	60059
#	74136
#	86798
#	103373
#	114546
#	128098
#	141917
#	161666
#	175416
#	188915
#	204800
#	220550
#
# Disc length: 3117 seconds
#
# Revision: 1
# Processed by: cddbd v1.5.2PL0 Copyright (c) Steve Scherf et al.
# Submitted via: audiograbber 1.83.01
#
DISCID=d30c2b10
DTITLE=Die Korntaler - Erinnerungen
DYEAR=2007
DGENRE=Schlager
TTITLE0=Du bist mein erster Gedanke
TTITLE1=Mit 17 fängt erts das Leben an
TTITLE2=Weine keine Träne um mich, bella Maria
TTITLE3=Und das Meer singt sein Lied
TTITLE4=Aber dich gibts nur einmal für mich
TTITLE5=Rot ist der Wein
TTITLE6=California Blue
TTITLE7=Adios Amigo
TTITLE8=Rote Rosen, rote Lippen, roter Wein
TTITLE9=Ginny oh Ginny
TTITLE10=Wenn ein Schiff vorüber fährt
TTITLE11=Einmal um die ganze Welt
TTITLE12=Buona Notte
TTITLE13=Königin der Nacht
TTITLE14=Ich geh' für dich durchs Feuer
TTITLE15=Ein schöner Tag
EXTD=
EXTT0=
EXTT1=
EXTT2=
EXTT3=
EXTT4=
EXTT5=
EXTT6=
EXTT7=
EXTT8=
EXTT9=
EXTT10=
EXTT11=
EXTT12=
EXTT13=
EXTT14=
EXTT15=
PLAYORDER=
